<?xml version="1.0" encoding="UTF-8"?>
<svg width="20px" height="18px" viewBox="0 0 20 18" version="1.1" xmlns="http://www.w3.org/2000/svg" xmlns:xlink="http://www.w3.org/1999/xlink">
    <!-- Generator: Sketch 49.3 (51167) - http://www.bohemiancoding.com/sketch -->
    <title>ic_developer_board</title>
    <desc>Created with Sketch.</desc>
    <defs></defs>
    <g id="Page-1" stroke="none" stroke-width="1" fill="none" fill-rule="evenodd">
        <g id="PhoneDirectory" transform="translate(-29.000000, -541.000000)">
            <g id="ic_developer_board" transform="translate(29.000000, 541.000000)">
                <g id="Icon-24px">
                    <path d="M19.5862069,6.20689655 L19.5862069,4.27586207 L17.6551724,4.27586207 L17.6551724,2.34482759 C17.6551724,1.28275862 16.7862069,0.413793103 15.7241379,0.413793103 L2.20689655,0.413793103 C1.14482759,0.413793103 0.275862069,1.28275862 0.275862069,2.34482759 L0.275862069,15.862069 C0.275862069,16.9241379 1.14482759,17.7931034 2.20689655,17.7931034 L15.7241379,17.7931034 C16.7862069,17.7931034 17.6551724,16.9241379 17.6551724,15.862069 L17.6551724,13.9310345 L19.5862069,13.9310345 L19.5862069,12 L17.6551724,12 L17.6551724,10.0689655 L19.5862069,10.0689655 L19.5862069,8.13793103 L17.6551724,8.13793103 L17.6551724,6.20689655 L19.5862069,6.20689655 L19.5862069,6.20689655 Z M15.7241379,15.862069 L2.20689655,15.862069 L2.20689655,2.34482759 L15.7241379,2.34482759 L15.7241379,15.862069 L15.7241379,15.862069 Z M4.13793103,10.0689655 L8.96551724,10.0689655 L8.96551724,13.9310345 L4.13793103,13.9310345 L4.13793103,10.0689655 Z M9.93103448,4.27586207 L13.7931034,4.27586207 L13.7931034,7.17241379 L9.93103448,7.17241379 L9.93103448,4.27586207 Z M4.13793103,4.27586207 L8.96551724,4.27586207 L8.96551724,9.10344828 L4.13793103,9.10344828 L4.13793103,4.27586207 Z M9.93103448,8.13793103 L13.7931034,8.13793103 L13.7931034,13.9310345 L9.93103448,13.9310345 L9.93103448,8.13793103 Z" id="Shape" fill="#AAA5A5"></path>
                    <path d="M0.827586207,0.827586207 L24,0.827586207 L24,24 L0.827586207,24 L0.827586207,0.827586207 Z M0.827586207,0.827586207 L24,0.827586207 L24,24 L0.827586207,24 L0.827586207,0.827586207 Z" id="Shape"></path>
                </g>
            </g>
        </g>
    </g>
</svg>